<mxfile host="app.diagrams.net" modified="2024-05-18T20:27:26.214Z" agent="Mozilla/5.0 (Windows NT 10.0; Win64; x64) AppleWebKit/537.36 (KHTML, like Gecko) Chrome/125.0.0.0 Safari/537.36" etag="PSrd74FWxhJbk_Rtp8Vu" version="24.4.4" type="github">
  <diagram name="Page-1" id="UmI5OVjlSen4vwv1EwPG">
    <mxGraphModel dx="1290" dy="522" grid="1" gridSize="10" guides="1" tooltips="1" connect="1" arrows="1" fold="1" page="1" pageScale="1" pageWidth="827" pageHeight="1169" math="0" shadow="0">
      <root>
        <mxCell id="0" />
        <mxCell id="1" parent="0" />
        <mxCell id="G6abDcwJfT4IdSnQX5Mb-11" style="edgeStyle=orthogonalEdgeStyle;rounded=0;orthogonalLoop=1;jettySize=auto;html=1;entryX=0.5;entryY=0;entryDx=0;entryDy=0;" parent="1" source="G6abDcwJfT4IdSnQX5Mb-1" target="G6abDcwJfT4IdSnQX5Mb-4" edge="1">
          <mxGeometry relative="1" as="geometry" />
        </mxCell>
        <mxCell id="G6abDcwJfT4IdSnQX5Mb-1" value="Social-Networking" style="rounded=0;whiteSpace=wrap;html=1;" parent="1" vertex="1">
          <mxGeometry x="294" y="100" width="120" height="60" as="geometry" />
        </mxCell>
        <mxCell id="G6abDcwJfT4IdSnQX5Mb-13" style="edgeStyle=orthogonalEdgeStyle;rounded=0;orthogonalLoop=1;jettySize=auto;html=1;entryX=0.5;entryY=0;entryDx=0;entryDy=0;" parent="1" source="G6abDcwJfT4IdSnQX5Mb-4" target="G6abDcwJfT4IdSnQX5Mb-5" edge="1">
          <mxGeometry relative="1" as="geometry" />
        </mxCell>
        <mxCell id="G6abDcwJfT4IdSnQX5Mb-4" value="Node.js" style="rounded=1;whiteSpace=wrap;html=1;" parent="1" vertex="1">
          <mxGeometry x="306" y="210" width="96" height="40" as="geometry" />
        </mxCell>
        <mxCell id="G6abDcwJfT4IdSnQX5Mb-14" style="edgeStyle=orthogonalEdgeStyle;rounded=0;orthogonalLoop=1;jettySize=auto;html=1;entryX=0.5;entryY=0;entryDx=0;entryDy=0;" parent="1" source="G6abDcwJfT4IdSnQX5Mb-5" target="G6abDcwJfT4IdSnQX5Mb-8" edge="1">
          <mxGeometry relative="1" as="geometry" />
        </mxCell>
        <mxCell id="G6abDcwJfT4IdSnQX5Mb-16" style="edgeStyle=orthogonalEdgeStyle;rounded=0;orthogonalLoop=1;jettySize=auto;html=1;entryX=1;entryY=0.5;entryDx=0;entryDy=0;" parent="1" source="G6abDcwJfT4IdSnQX5Mb-5" target="G6abDcwJfT4IdSnQX5Mb-10" edge="1">
          <mxGeometry relative="1" as="geometry" />
        </mxCell>
        <mxCell id="G6abDcwJfT4IdSnQX5Mb-17" style="edgeStyle=orthogonalEdgeStyle;rounded=0;orthogonalLoop=1;jettySize=auto;html=1;entryX=0;entryY=0.5;entryDx=0;entryDy=0;" parent="1" source="G6abDcwJfT4IdSnQX5Mb-5" target="G6abDcwJfT4IdSnQX5Mb-6" edge="1">
          <mxGeometry relative="1" as="geometry" />
        </mxCell>
        <mxCell id="G6abDcwJfT4IdSnQX5Mb-5" value="Framework" style="rounded=1;whiteSpace=wrap;html=1;" parent="1" vertex="1">
          <mxGeometry x="306" y="290" width="96" height="40" as="geometry" />
        </mxCell>
        <mxCell id="G6abDcwJfT4IdSnQX5Mb-6" value="Express" style="rounded=1;whiteSpace=wrap;html=1;" parent="1" vertex="1">
          <mxGeometry x="480" y="290" width="96" height="40" as="geometry" />
        </mxCell>
        <mxCell id="G6abDcwJfT4IdSnQX5Mb-15" style="edgeStyle=orthogonalEdgeStyle;rounded=0;orthogonalLoop=1;jettySize=auto;html=1;entryX=0.5;entryY=0;entryDx=0;entryDy=0;" parent="1" source="G6abDcwJfT4IdSnQX5Mb-8" target="G6abDcwJfT4IdSnQX5Mb-9" edge="1">
          <mxGeometry relative="1" as="geometry" />
        </mxCell>
        <mxCell id="G6abDcwJfT4IdSnQX5Mb-19" style="edgeStyle=orthogonalEdgeStyle;rounded=0;orthogonalLoop=1;jettySize=auto;html=1;entryX=0;entryY=0.5;entryDx=0;entryDy=0;" parent="1" source="G6abDcwJfT4IdSnQX5Mb-8" target="G6abDcwJfT4IdSnQX5Mb-18" edge="1">
          <mxGeometry relative="1" as="geometry" />
        </mxCell>
        <mxCell id="G6abDcwJfT4IdSnQX5Mb-8" value="SSR" style="rounded=1;whiteSpace=wrap;html=1;" parent="1" vertex="1">
          <mxGeometry x="306" y="360" width="96" height="40" as="geometry" />
        </mxCell>
        <mxCell id="G6abDcwJfT4IdSnQX5Mb-9" value="Handlebar/React" style="rounded=1;whiteSpace=wrap;html=1;" parent="1" vertex="1">
          <mxGeometry x="306" y="440" width="96" height="40" as="geometry" />
        </mxCell>
        <mxCell id="G6abDcwJfT4IdSnQX5Mb-10" value="Nonsql(Mongodb)" style="rounded=1;whiteSpace=wrap;html=1;" parent="1" vertex="1">
          <mxGeometry x="120" y="290" width="96" height="40" as="geometry" />
        </mxCell>
        <mxCell id="G6abDcwJfT4IdSnQX5Mb-18" value="Resful APIS" style="rounded=1;whiteSpace=wrap;html=1;" parent="1" vertex="1">
          <mxGeometry x="490" y="360" width="96" height="40" as="geometry" />
        </mxCell>
      </root>
    </mxGraphModel>
  </diagram>
</mxfile>
